<?xml version="1.0" encoding="iso-8859-1"?>
<!-- Generator: Adobe Illustrator 19.0.0, SVG Export Plug-In . SVG Version: 6.00 Build 0)  -->
<svg version="1.1" id="Capa_1" xmlns="http://www.w3.org/2000/svg" xmlns:xlink="http://www.w3.org/1999/xlink" x="0px" y="0px"
	 viewBox="0 0 384 384" style="enable-background:new 0 0 384 384;" xml:space="preserve">
<g>
	<g>
		<g>
			<polygon points="32,32 128,32 128,0 0,0 0,128 32,128 			" fill="#ffffff"/>
			<polygon points="32,256 0,256 0,384 128,384 128,352 32,352 			" fill="#ffffff"/>
			<polygon points="352,352 256,352 256,384 384,384 384,256 352,256 			" fill="#ffffff"/>
			<polygon points="256,0 256,32 352,32 352,128 384,128 384,0 			" fill="#ffffff"/>
			<polygon points="326.624,304 214.624,192 326.624,80 304,57.368 192,169.376 80,57.368 57.368,80 169.368,192 57.368,304 
				80,326.632 192,214.624 304,326.632 			" fill="#ffffff"/>
		</g>
	</g>
</g>
<g>
</g>
<g>
</g>
<g>
</g>
<g>
</g>
<g>
</g>
<g>
</g>
<g>
</g>
<g>
</g>
<g>
</g>
<g>
</g>
<g>
</g>
<g>
</g>
<g>
</g>
<g>
</g>
<g>
</g>
</svg>
